<?xml version="1.0" standalone="no"?>
<!DOCTYPE svg PUBLIC "-//W3C//DTD SVG 20010904//EN"
 "http://www.w3.org/TR/2001/REC-SVG-20010904/DTD/svg10.dtd">
<svg version="1.0" xmlns="http://www.w3.org/2000/svg"
 width="1280.000000pt" height="905.000000pt" viewBox="0 0 1280.000000 905.000000"
 preserveAspectRatio="xMidYMid meet">
<metadata>
Created by potrace 1.15, written by Peter Selinger 2001-2017
</metadata>
<g transform="translate(0.000000,905.000000) scale(0.100000,-0.100000)"
fill="#000000" stroke="none">
<path d="M8533 9020 c-8 -30 -9 -31 -79 -35 -207 -12 -402 -174 -510 -424
l-33 -76 -153 -6 c-102 -5 -188 -14 -258 -30 -85 -18 -148 -24 -325 -29 -202
-5 -225 -7 -275 -29 -30 -13 -80 -31 -110 -40 -43 -14 -56 -22 -58 -40 -2 -12
-30 -49 -63 -82 -32 -32 -84 -92 -114 -134 -42 -56 -62 -75 -79 -75 -13 0 -46
-7 -74 -16 -76 -25 -97 -15 -119 52 -22 69 -65 110 -192 179 l-91 50 0 56 0
56 -72 43 c-107 64 -137 64 -268 2 -125 -60 -167 -72 -241 -72 -86 0 -111 8
-175 57 -32 24 -70 49 -83 54 -31 12 -81 -4 -111 -36 -46 -49 -115 -21 -145
58 l-16 44 -87 12 c-173 25 -200 26 -252 1 -48 -22 -49 -22 -120 -5 -89 22
-168 77 -230 163 -38 53 -49 62 -75 62 -75 -1 -144 -57 -193 -157 -30 -60 -46
-65 -90 -28 -26 21 -33 23 -65 14 -35 -9 -37 -13 -37 -49 0 -44 -19 -68 -61
-77 -34 -6 -43 -16 -58 -64 -10 -30 -29 -49 -102 -100 -50 -34 -112 -87 -139
-116 -45 -49 -52 -53 -94 -53 -41 0 -45 2 -48 27 -2 19 -10 29 -23 31 -11 2
-29 13 -41 23 -13 13 -28 17 -40 13 -34 -12 -94 -77 -94 -101 0 -27 -10 -29
-57 -7 -76 37 -154 -23 -213 -164 -47 -112 -69 -137 -168 -185 -77 -37 -90
-48 -115 -91 -24 -41 -28 -57 -22 -91 3 -23 15 -52 26 -64 18 -19 19 -26 9
-56 -14 -43 -23 -50 -94 -68 -62 -17 -107 -51 -125 -96 -6 -14 -17 -72 -25
-128 -16 -120 -37 -168 -107 -246 -45 -51 -55 -57 -90 -57 -31 0 -42 -5 -55
-27 -9 -16 -25 -40 -35 -55 -24 -34 -24 -45 1 -93 11 -22 20 -45 20 -51 0 -15
-73 -81 -106 -96 -27 -13 -28 -16 -14 -52 12 -32 -17 -69 -89 -111 l-51 -30 0
-60 c0 -39 6 -69 16 -83 20 -29 14 -37 -56 -72 -46 -23 -61 -37 -71 -64 -10
-27 -19 -36 -45 -41 -19 -3 -47 -17 -64 -31 -25 -22 -30 -33 -30 -71 0 -60
-12 -78 -75 -114 -30 -17 -55 -32 -55 -34 0 -2 13 -32 30 -67 42 -88 40 -92
-26 -107 -74 -17 -94 -38 -94 -98 0 -27 -6 -59 -13 -72 -11 -22 -80 -81 -115
-97 -7 -3 -45 10 -85 30 -85 41 -85 42 -131 19 -31 -14 -39 -15 -63 -3 -34 16
-42 15 -115 -12 -61 -24 -78 -46 -78 -101 0 -67 -54 -119 -138 -133 -38 -6
-40 -5 -47 25 -11 50 -53 74 -145 84 -8 1 -16 -7 -18 -18 -2 -11 -11 -31 -21
-44 -15 -20 -24 -23 -54 -17 -23 4 -38 14 -42 26 -4 11 -15 20 -26 20 -31 0
-157 -68 -163 -88 -10 -29 37 -155 87 -235 78 -123 189 -219 287 -247 34 -10
37 -15 84 -135 81 -207 125 -258 165 -189 26 43 57 47 46 7 -4 -16 -13 -59
-21 -97 -15 -68 -35 -118 -60 -146 -11 -13 -10 -21 8 -48 11 -18 33 -39 49
-48 24 -12 29 -21 29 -49 0 -33 -2 -35 -34 -35 -27 0 -35 -5 -40 -23 -4 -19 6
-35 52 -83 31 -32 68 -81 81 -109 32 -67 45 -81 124 -132 66 -42 68 -44 62
-77 -6 -30 -4 -34 18 -40 14 -3 32 -12 40 -20 18 -18 71 -24 88 -9 23 18 56
-3 88 -54 37 -60 58 -72 218 -128 172 -61 183 -66 183 -79 0 -6 -16 -37 -35
-69 -19 -32 -38 -69 -41 -82 -5 -19 -17 -28 -47 -36 -25 -6 -54 -25 -74 -46
l-32 -36 30 -43 c33 -48 80 -79 183 -120 l69 -27 -22 -19 c-28 -22 -160 -65
-231 -74 l-52 -7 7 -36 c7 -41 22 -67 77 -133 34 -41 45 -48 76 -48 46 -1 107
-22 134 -47 11 -10 29 -35 39 -56 11 -21 36 -56 56 -78 l37 -41 118 7 c104 6
127 5 204 -16 108 -28 133 -52 169 -156 33 -99 38 -108 106 -181 l56 -60 30
18 c47 28 89 87 122 168 57 138 71 155 166 201 47 22 88 48 91 56 16 40 91 3
133 -64 39 -64 66 -82 124 -80 48 2 81 -15 156 -80 l34 -30 -34 -30 c-38 -35
-56 -34 -137 10 -45 25 -53 27 -58 14 -9 -23 -78 -67 -159 -103 -53 -24 -70
-36 -68 -50 3 -28 123 -313 145 -344 12 -18 34 -31 61 -38 89 -22 105 -35 113
-87 3 -26 12 -59 19 -73 15 -29 122 -96 178 -111 35 -9 37 -12 37 -52 l0 -42
73 -19 c39 -10 92 -21 116 -23 43 -5 43 -5 38 -39 -11 -67 -60 -112 -152 -139
-32 -10 -41 -17 -43 -38 -3 -23 -6 -25 -27 -17 -21 8 -25 4 -44 -40 -29 -67
-27 -84 19 -166 l39 -71 110 -26 c167 -41 254 -38 401 13 169 59 224 54 375
-34 l80 -46 156 0 156 0 24 -35 c28 -41 67 -55 156 -55 83 0 107 -11 183 -84
70 -67 116 -86 213 -86 115 1 275 59 340 123 l36 37 58 -11 c65 -12 98 -27
163 -74 58 -41 120 -65 170 -65 22 0 94 18 160 41 152 50 186 48 259 -17 l49
-44 119 8 c135 10 133 11 197 -71 22 -27 55 -56 75 -64 49 -21 130 -11 228 26
43 16 97 35 120 42 36 10 43 17 50 48 10 43 24 48 146 57 61 4 87 10 87 19 0
22 41 65 83 86 70 35 97 67 97 113 1 58 19 85 81 115 47 23 62 38 118 121 l63
95 77 16 c42 8 101 25 131 37 42 17 76 22 145 22 53 0 146 10 225 25 243 45
278 58 412 148 36 25 83 51 104 57 43 14 248 9 329 -9 28 -6 71 -13 98 -16 33
-5 59 -16 90 -41 23 -19 59 -42 80 -52 25 -11 39 -26 43 -42 15 -67 2 -63 158
-58 120 3 147 6 185 25 41 20 46 21 73 7 31 -16 100 -83 125 -122 21 -30 39
-28 147 18 51 22 96 40 98 40 3 0 8 -26 12 -57 13 -113 75 -201 174 -248 78
-37 383 -140 459 -155 93 -18 269 1 301 34 13 13 18 44 22 149 l6 133 46 80
c64 109 65 119 29 202 -17 39 -31 80 -31 93 0 12 -5 51 -12 87 l-12 65 32 27
32 27 -14 41 c-8 23 -27 61 -41 85 -14 24 -25 52 -25 63 1 55 175 324 293 450
l68 73 -26 46 c-34 57 -52 57 -112 2 l-46 -42 7 29 c11 47 40 80 95 109 l50
28 21 -21 20 -20 27 23 c41 35 54 51 90 119 41 75 70 108 89 101 7 -2 36 17
65 44 l52 48 141 0 c132 0 147 2 236 32 52 17 112 34 133 38 28 6 39 13 43 32
4 15 18 29 34 34 26 10 27 12 34 112 3 56 11 120 16 142 9 37 6 186 -6 261 -4
26 3 40 32 75 34 41 35 44 17 56 -10 8 -28 16 -40 20 -27 6 -27 1 -8 88 26
125 23 139 -50 238 -95 127 -151 156 -295 157 -45 0 -78 6 -104 19 -33 17 -42
18 -75 6 -127 -44 -309 -162 -415 -267 -77 -76 -80 -79 -108 -67 -15 6 -53 38
-83 70 -45 49 -59 59 -87 59 -31 0 -35 -3 -45 -42 -10 -38 -9 -45 8 -64 23
-24 16 -54 -12 -54 -13 0 -19 -7 -19 -24 0 -14 5 -28 10 -31 22 -13 8 -25 -29
-25 -100 0 -326 77 -474 162 -94 53 -94 55 -65 115 18 37 -8 71 -82 107 l-65
31 -5 63 c-5 67 -19 87 -103 147 -26 19 -27 23 -16 48 6 14 28 37 48 50 l37
25 -8 100 c-8 102 -25 175 -92 400 -20 68 -36 142 -36 164 0 23 15 78 35 127
l34 87 -9 134 -9 135 27 33 c56 71 62 85 62 154 0 58 3 69 23 85 55 43 60 95
18 174 -39 76 -44 101 -25 151 58 157 55 191 -25 258 -47 40 -49 43 -55 108
-6 57 -12 72 -39 100 -31 32 -32 36 -37 145 l-5 112 -58 95 -58 95 -79 24
c-70 21 -80 27 -80 47 0 17 -9 28 -32 38 -18 7 -58 38 -89 68 -52 50 -56 59
-63 112 -3 32 -16 76 -28 99 -11 23 -29 64 -39 91 l-17 50 -73 17 c-88 21
-104 37 -113 116 -9 78 -22 109 -69 166 -32 39 -44 47 -73 47 -29 0 -35 4 -40
28 -3 15 -12 46 -20 70 -8 23 -14 50 -14 60 -1 9 -32 39 -71 67 -60 43 -139
133 -139 158 0 4 10 21 22 38 l22 30 -36 33 c-32 29 -38 44 -61 142 -14 60
-30 135 -37 167 -13 64 -41 98 -164 201 l-58 49 6 62 6 61 -75 101 c-42 56
-82 104 -90 107 -9 3 -27 1 -41 -4 -31 -12 -55 -1 -79 37 -53 84 -92 100 -153
63 -42 -26 -56 -25 -97 6 l-34 26 -8 -32z"/>
</g>
</svg>
